<svg xmlns="http://www.w3.org/2000/svg" xmlns:xlink="http://www.w3.org/1999/xlink" contentStyleType="text/css" data-diagram-type="CLASS" height="1324px" preserveAspectRatio="none" style="width:1601px;height:1324px;background:#FFFFFF;" version="1.1" viewBox="0 0 1601 1324" width="1601px" zoomAndPan="magnify"><title>Architecture Logicielle du Module de Routage V2</title><defs/><g><g class="title" data-source-line="2"><text fill="#000000" font-family="Verdana" font-size="22" font-weight="bold" lengthAdjust="spacing" textLength="607.4707" x="492.2896" y="35.4209">Architecture Logicielle du Module de Routage V2</text></g><!--cluster Module de Routage LED--><g class="cluster" data-entity="Module de Routage LED" data-source-line="4" data-uid="ent0002" id="cluster_Module de Routage LED"><path d="M356.55,57.6094 L545.6477,57.6094 A3.75,3.75 0 0 1 548.1477,60.1094 L555.1477,79.9063 L1591.55,79.9063 A2.5,2.5 0 0 1 1594.05,82.4063 L1594.05,1314.6894 A2.5,2.5 0 0 1 1591.55,1317.1894 L356.55,1317.1894 A2.5,2.5 0 0 1 354.05,1314.6894 L354.05,60.1094 A2.5,2.5 0 0 1 356.55,57.6094" fill="#FFFFFF" style="stroke:#000000;stroke-width:1;"/><line style="stroke:#000000;stroke-width:1;" x1="354.05" x2="555.1477" y1="79.9063" y2="79.9063"/><text fill="#000000" font-family="Verdana" font-size="14" font-weight="bold" lengthAdjust="spacing" textLength="188.0977" x="358.05" y="72.6045">Module de Routage LED</text></g><!--class EHubReceiver--><g class="entity" data-entity="EHubReceiver" data-source-line="6" data-uid="ent0003" id="entity_EHubReceiver"><rect fill="#FFFFFF" height="174.375" rx="2.5" ry="2.5" style="stroke:#000000;stroke-width:1;" width="389.5791" x="424.26" y="310.0994"/><ellipse cx="566.1355" cy="324.0994" fill="#FFFFFF" rx="9" ry="9" style="stroke:#000000;stroke-width:1;"/><path d="M569.1042,329.74 Q568.5261,330.0369 567.8855,330.1775 Q567.2449,330.3337 566.5417,330.3337 Q564.0417,330.3337 562.7136,328.6931 Q561.4011,327.0369 561.4011,323.9119 Q561.4011,320.7869 562.7136,319.1306 Q564.0417,317.4744 566.5417,317.4744 Q567.2449,317.4744 567.8855,317.6306 Q568.5417,317.7869 569.1042,318.0837 L569.1042,320.8025 Q568.4792,320.2244 567.8855,319.9587 Q567.2917,319.6775 566.6667,319.6775 Q565.323,319.6775 564.6355,320.7556 Q563.948,321.8181 563.948,323.9119 Q563.948,326.0056 564.6355,327.0837 Q565.323,328.1462 566.6667,328.1462 Q567.2917,328.1462 567.8855,327.8806 Q568.4792,327.5994 569.1042,327.0212 L569.1042,329.74 Z " fill="#000000"/><text fill="#000000" font-family="Verdana" font-size="14" lengthAdjust="spacing" textLength="98.3281" x="583.6355" y="328.9461">EHubReceiver</text><line style="stroke:#000000;stroke-width:1;" x1="425.26" x2="812.8391" y1="338.0994" y2="338.0994"/><rect fill="none" height="6" style="stroke:#000000;stroke-width:1;" width="6" x="432.26" y="348.7478"/><text fill="#000000" font-family="Verdana" font-size="14" lengthAdjust="spacing" textLength="60.5664" x="442.26" y="355.0945">port : int</text><rect fill="none" height="6" style="stroke:#000000;stroke-width:1;" width="6" x="432.26" y="365.0447"/><text fill="#000000" font-family="Verdana" font-size="14" lengthAdjust="spacing" textLength="83.4531" x="442.26" y="371.3914">univers : int</text><rect fill="none" height="6" style="stroke:#000000;stroke-width:1;" width="6" x="432.26" y="381.3416"/><text fill="#000000" font-family="Verdana" font-size="14" lengthAdjust="spacing" textLength="144.3818" x="442.26" y="387.6882">isListening : boolean</text><line style="stroke:#000000;stroke-width:1;" x1="425.26" x2="812.8391" y1="394.99" y2="394.99"/><ellipse cx="435.26" cy="408.6384" fill="#FFFFFF" rx="3" ry="3" style="stroke:#000000;stroke-width:1;"/><text fill="#000000" font-family="Verdana" font-size="14" lengthAdjust="spacing" textLength="150.3838" x="442.26" y="411.9851">startListening() : void</text><ellipse cx="435.26" cy="424.9353" fill="#FFFFFF" rx="3" ry="3" style="stroke:#000000;stroke-width:1;"/><text fill="#000000" font-family="Verdana" font-size="14" lengthAdjust="spacing" textLength="148.0117" x="442.26" y="428.282">stopListening() : void</text><ellipse cx="435.26" cy="441.2322" fill="#FFFFFF" rx="3" ry="3" style="stroke:#000000;stroke-width:1;"/><text fill="#000000" font-family="Verdana" font-size="14" lengthAdjust="spacing" textLength="365.5791" x="442.26" y="444.5789">parseUpdateMessage(data : byte[]) : EntityUpdate[]</text><ellipse cx="435.26" cy="457.5291" fill="#FFFFFF" rx="3" ry="3" style="stroke:#000000;stroke-width:1;"/><text fill="#000000" font-family="Verdana" font-size="14" lengthAdjust="spacing" textLength="354.0127" x="442.26" y="460.8757">parseConfigMessage(data : byte[]) : EntityConfig[]</text><ellipse cx="435.26" cy="473.8259" fill="#FFFFFF" rx="3" ry="3" style="stroke:#000000;stroke-width:1;"/><text fill="#000000" font-family="Verdana" font-size="14" lengthAdjust="spacing" textLength="294.5605" x="442.26" y="477.1726">decompressPayload(data : byte[]) : byte[]</text></g><!--class EntityToDMXMapper--><g class="entity" data-entity="EntityToDMXMapper" data-source-line="17" data-uid="ent0004" id="entity_EntityToDMXMapper"><rect fill="#FFFFFF" height="174.375" rx="2.5" ry="2.5" style="stroke:#000000;stroke-width:1;" width="584.4922" x="727.8" y="576.4694"/><ellipse cx="944.676" cy="590.4694" fill="#FFFFFF" rx="9" ry="9" style="stroke:#000000;stroke-width:1;"/><path d="M947.6447,596.11 Q947.0666,596.4069 946.426,596.5475 Q945.7854,596.7037 945.0822,596.7037 Q942.5822,596.7037 941.2541,595.0631 Q939.9416,593.4069 939.9416,590.2819 Q939.9416,587.1569 941.2541,585.5006 Q942.5822,583.8444 945.0822,583.8444 Q945.7854,583.8444 946.426,584.0006 Q947.0822,584.1569 947.6447,584.4537 L947.6447,587.1725 Q947.0197,586.5944 946.426,586.3287 Q945.8322,586.0475 945.2072,586.0475 Q943.8635,586.0475 943.176,587.1256 Q942.4885,588.1881 942.4885,590.2819 Q942.4885,592.3756 943.176,593.4537 Q943.8635,594.5162 945.2072,594.5162 Q945.8322,594.5162 946.426,594.2506 Q947.0197,593.9694 947.6447,593.3912 L947.6447,596.11 Z " fill="#000000"/><text fill="#000000" font-family="Verdana" font-size="14" lengthAdjust="spacing" textLength="143.2402" x="962.176" y="595.3161">EntityToDMXMapper</text><line style="stroke:#000000;stroke-width:1;" x1="728.8" x2="1311.2922" y1="604.4694" y2="604.4694"/><rect fill="none" height="6" style="stroke:#000000;stroke-width:1;" width="6" x="735.8" y="615.1178"/><text fill="#000000" font-family="Verdana" font-size="14" lengthAdjust="spacing" textLength="320.2227" x="745.8" y="621.4645">mappingTable : Map&lt;EntityID, DMXAddress&gt;</text><rect fill="none" height="6" style="stroke:#000000;stroke-width:1;" width="6" x="735.8" y="631.4147"/><text fill="#000000" font-family="Verdana" font-size="14" lengthAdjust="spacing" textLength="202.7813" x="745.8" y="637.7614">channelMode : ChannelMode</text><rect fill="none" height="6" style="stroke:#000000;stroke-width:1;" width="6" x="735.8" y="647.7116"/><text fill="#000000" font-family="Verdana" font-size="14" lengthAdjust="spacing" textLength="71.6885" x="745.8" y="654.0582">offset : int</text><line style="stroke:#000000;stroke-width:1;" x1="728.8" x2="1311.2922" y1="661.36" y2="661.36"/><ellipse cx="738.8" cy="675.0084" fill="#FFFFFF" rx="3" ry="3" style="stroke:#000000;stroke-width:1;"/><text fill="#000000" font-family="Verdana" font-size="14" lengthAdjust="spacing" textLength="560.4922" x="745.8" y="678.3551">configureMapping(mappingTable : Map, channelMode : string, offset : int) : void</text><ellipse cx="738.8" cy="691.3053" fill="#FFFFFF" rx="3" ry="3" style="stroke:#000000;stroke-width:1;"/><text fill="#000000" font-family="Verdana" font-size="14" lengthAdjust="spacing" textLength="402.6641" x="745.8" y="694.652">mapEntitiesToDMX(entities : EntityUpdate[]) : DMXData[]</text><ellipse cx="738.8" cy="707.6022" fill="#FFFFFF" rx="3" ry="3" style="stroke:#000000;stroke-width:1;"/><text fill="#000000" font-family="Verdana" font-size="14" lengthAdjust="spacing" textLength="288.3945" x="745.8" y="710.9489">saveConfiguration(filePath : string) : void</text><ellipse cx="738.8" cy="723.8991" fill="#FFFFFF" rx="3" ry="3" style="stroke:#000000;stroke-width:1;"/><text fill="#000000" font-family="Verdana" font-size="14" lengthAdjust="spacing" textLength="285.5439" x="745.8" y="727.2457">loadConfiguration(filePath : string) : void</text><ellipse cx="738.8" cy="740.1959" fill="#FFFFFF" rx="3" ry="3" style="stroke:#000000;stroke-width:1;"/><text fill="#000000" font-family="Verdana" font-size="14" lengthAdjust="spacing" textLength="196.8066" x="745.8" y="743.5426">validateMapping() : boolean</text></g><!--class PatchMapHandler--><g class="entity" data-entity="PatchMapHandler" data-source-line="28" data-uid="ent0005" id="entity_PatchMapHandler"><rect fill="#FFFFFF" height="190.6719" rx="2.5" ry="2.5" style="stroke:#000000;stroke-width:1;" width="420.8057" x="1157.64" y="842.8494"/><ellipse cx="1302.4173" cy="856.8494" fill="#FFFFFF" rx="9" ry="9" style="stroke:#000000;stroke-width:1;"/><path d="M1305.3861,862.49 Q1304.808,862.7869 1304.1673,862.9275 Q1303.5267,863.0838 1302.8236,863.0838 Q1300.3236,863.0838 1298.9955,861.4431 Q1297.683,859.7869 1297.683,856.6619 Q1297.683,853.5369 1298.9955,851.8806 Q1300.3236,850.2244 1302.8236,850.2244 Q1303.5267,850.2244 1304.1673,850.3806 Q1304.8236,850.5369 1305.3861,850.8338 L1305.3861,853.5525 Q1304.7611,852.9744 1304.1673,852.7088 Q1303.5736,852.4275 1302.9486,852.4275 Q1301.6048,852.4275 1300.9173,853.5056 Q1300.2298,854.5681 1300.2298,856.6619 Q1300.2298,858.7556 1300.9173,859.8338 Q1301.6048,860.8963 1302.9486,860.8963 Q1303.5736,860.8963 1304.1673,860.6306 Q1304.7611,860.3494 1305.3861,859.7713 L1305.3861,862.49 Z " fill="#000000"/><text fill="#000000" font-family="Verdana" font-size="14" lengthAdjust="spacing" textLength="123.751" x="1319.9173" y="861.6961">PatchMapHandler</text><line style="stroke:#000000;stroke-width:1;" x1="1158.64" x2="1577.4457" y1="870.8494" y2="870.8494"/><rect fill="none" height="6" style="stroke:#000000;stroke-width:1;" width="6" x="1165.64" y="881.4978"/><text fill="#000000" font-family="Verdana" font-size="14" lengthAdjust="spacing" textLength="167.46" x="1175.64" y="887.8445">patches : Map&lt;int, int&gt;</text><rect fill="none" height="6" style="stroke:#000000;stroke-width:1;" width="6" x="1165.64" y="897.7947"/><text fill="#000000" font-family="Verdana" font-size="14" lengthAdjust="spacing" textLength="137.3477" x="1175.64" y="904.1414">isEnabled : boolean</text><line style="stroke:#000000;stroke-width:1;" x1="1158.64" x2="1577.4457" y1="911.4431" y2="911.4431"/><ellipse cx="1168.64" cy="925.0916" fill="#FFFFFF" rx="3" ry="3" style="stroke:#000000;stroke-width:1;"/><text fill="#000000" font-family="Verdana" font-size="14" lengthAdjust="spacing" textLength="396.8057" x="1175.64" y="928.4382">addPatch(sourceChannel : int, targetChannel : int) : void</text><ellipse cx="1168.64" cy="941.3884" fill="#FFFFFF" rx="3" ry="3" style="stroke:#000000;stroke-width:1;"/><text fill="#000000" font-family="Verdana" font-size="14" lengthAdjust="spacing" textLength="282.8643" x="1175.64" y="944.7351">removePatch(sourceChannel : int) : void</text><ellipse cx="1168.64" cy="957.6853" fill="#FFFFFF" rx="3" ry="3" style="stroke:#000000;stroke-width:1;"/><text fill="#000000" font-family="Verdana" font-size="14" lengthAdjust="spacing" textLength="349.5146" x="1175.64" y="961.032">applyPatches(dmxData : DMXData[]) : DMXData[]</text><ellipse cx="1168.64" cy="973.9822" fill="#FFFFFF" rx="3" ry="3" style="stroke:#000000;stroke-width:1;"/><text fill="#000000" font-family="Verdana" font-size="14" lengthAdjust="spacing" textLength="290.1377" x="1175.64" y="977.3289">loadPatchFromFile(filePath : string) : void</text><ellipse cx="1168.64" cy="990.2791" fill="#FFFFFF" rx="3" ry="3" style="stroke:#000000;stroke-width:1;"/><text fill="#000000" font-family="Verdana" font-size="14" lengthAdjust="spacing" textLength="274.0938" x="1175.64" y="993.6257">savePatchToFile(filePath : string) : void</text><ellipse cx="1168.64" cy="1006.5759" fill="#FFFFFF" rx="3" ry="3" style="stroke:#000000;stroke-width:1;"/><text fill="#000000" font-family="Verdana" font-size="14" lengthAdjust="spacing" textLength="162.3535" x="1175.64" y="1009.9226">enablePatching() : void</text><ellipse cx="1168.64" cy="1022.8728" fill="#FFFFFF" rx="3" ry="3" style="stroke:#000000;stroke-width:1;"/><text fill="#000000" font-family="Verdana" font-size="14" lengthAdjust="spacing" textLength="164.9375" x="1175.64" y="1026.2195">disablePatching() : void</text></g><!--class ArtNetSender--><g class="entity" data-entity="ArtNetSender" data-source-line="40" data-uid="ent0006" id="entity_ArtNetSender"><rect fill="#FFFFFF" height="174.375" rx="2.5" ry="2.5" style="stroke:#000000;stroke-width:1;" width="564.9277" x="406.58" y="850.9894"/><ellipse cx="637.7807" cy="864.9894" fill="#FFFFFF" rx="9" ry="9" style="stroke:#000000;stroke-width:1;"/><path d="M640.7494,870.63 Q640.1713,870.9269 639.5307,871.0675 Q638.8901,871.2237 638.1869,871.2237 Q635.6869,871.2237 634.3588,869.5831 Q633.0463,867.9269 633.0463,864.8019 Q633.0463,861.6769 634.3588,860.0206 Q635.6869,858.3644 638.1869,858.3644 Q638.8901,858.3644 639.5307,858.5206 Q640.1869,858.6769 640.7494,858.9737 L640.7494,861.6925 Q640.1244,861.1144 639.5307,860.8487 Q638.9369,860.5675 638.3119,860.5675 Q636.9682,860.5675 636.2807,861.6456 Q635.5932,862.7081 635.5932,864.8019 Q635.5932,866.8956 636.2807,867.9737 Q636.9682,869.0362 638.3119,869.0362 Q638.9369,869.0362 639.5307,868.7706 Q640.1244,868.4894 640.7494,867.9112 L640.7494,870.63 Z " fill="#000000"/><text fill="#000000" font-family="Verdana" font-size="14" lengthAdjust="spacing" textLength="95.0264" x="655.2807" y="869.8361">ArtNetSender</text><line style="stroke:#000000;stroke-width:1;" x1="407.58" x2="970.5077" y1="878.9894" y2="878.9894"/><rect fill="none" height="6" style="stroke:#000000;stroke-width:1;" width="6" x="414.58" y="889.6378"/><text fill="#000000" font-family="Verdana" font-size="14" lengthAdjust="spacing" textLength="294.9229" x="424.58" y="895.9845">targetControllers : List&lt;ControllerConfig&gt;</text><rect fill="none" height="6" style="stroke:#000000;stroke-width:1;" width="6" x="414.58" y="905.9347"/><text fill="#000000" font-family="Verdana" font-size="14" lengthAdjust="spacing" textLength="139.4189" x="424.58" y="912.2814">maxFrameRate : int</text><rect fill="none" height="6" style="stroke:#000000;stroke-width:1;" width="6" x="414.58" y="922.2316"/><text fill="#000000" font-family="Verdana" font-size="14" lengthAdjust="spacing" textLength="139.0361" x="424.58" y="928.5782">lastSendTime : long</text><line style="stroke:#000000;stroke-width:1;" x1="407.58" x2="970.5077" y1="935.88" y2="935.88"/><ellipse cx="417.58" cy="949.5284" fill="#FFFFFF" rx="3" ry="3" style="stroke:#000000;stroke-width:1;"/><text fill="#000000" font-family="Verdana" font-size="14" lengthAdjust="spacing" textLength="335.46" x="424.58" y="952.8751">addController(ip : string, universes : int[]) : void</text><ellipse cx="417.58" cy="965.8253" fill="#FFFFFF" rx="3" ry="3" style="stroke:#000000;stroke-width:1;"/><text fill="#000000" font-family="Verdana" font-size="14" lengthAdjust="spacing" textLength="243.3936" x="424.58" y="969.172">removeController(ip : string) : void</text><ellipse cx="417.58" cy="982.1222" fill="#FFFFFF" rx="3" ry="3" style="stroke:#000000;stroke-width:1;"/><text fill="#000000" font-family="Verdana" font-size="14" lengthAdjust="spacing" textLength="540.9277" x="424.58" y="985.4689">sendDMXPacket(dmxData : DMXData[], targetIP : string, universe : int) : void</text><ellipse cx="417.58" cy="998.4191" fill="#FFFFFF" rx="3" ry="3" style="stroke:#000000;stroke-width:1;"/><text fill="#000000" font-family="Verdana" font-size="14" lengthAdjust="spacing" textLength="162.0117" x="424.58" y="1001.7657">limitFrameRate() : void</text><ellipse cx="417.58" cy="1014.7159" fill="#FFFFFF" rx="3" ry="3" style="stroke:#000000;stroke-width:1;"/><text fill="#000000" font-family="Verdana" font-size="14" lengthAdjust="spacing" textLength="194.2432" x="424.58" y="1018.0626">isNetworkReady() : boolean</text></g><!--class MonitoringVisualization--><g class="entity" data-entity="MonitoringVisualization" data-source-line="51" data-uid="ent0007" id="entity_MonitoringVisualization"><rect fill="#FFFFFF" height="190.6719" rx="2.5" ry="2.5" style="stroke:#000000;stroke-width:1;" width="389.1416" x="494.48" y="1110.5194"/><ellipse cx="603.4986" cy="1124.5194" fill="#FFFFFF" rx="9" ry="9" style="stroke:#000000;stroke-width:1;"/><path d="M606.4673,1130.16 Q605.8892,1130.4569 605.2486,1130.5975 Q604.6079,1130.7537 603.9048,1130.7537 Q601.4048,1130.7537 600.0767,1129.1131 Q598.7642,1127.4569 598.7642,1124.3319 Q598.7642,1121.2069 600.0767,1119.5506 Q601.4048,1117.8944 603.9048,1117.8944 Q604.6079,1117.8944 605.2486,1118.0506 Q605.9048,1118.2069 606.4673,1118.5037 L606.4673,1121.2225 Q605.8423,1120.6444 605.2486,1120.3787 Q604.6548,1120.0975 604.0298,1120.0975 Q602.6861,1120.0975 601.9986,1121.1756 Q601.3111,1122.2381 601.3111,1124.3319 Q601.3111,1126.4256 601.9986,1127.5037 Q602.6861,1128.5662 604.0298,1128.5662 Q604.6548,1128.5662 605.2486,1128.3006 Q605.8423,1128.0194 606.4673,1127.4412 L606.4673,1130.16 Z " fill="#000000"/><text fill="#000000" font-family="Verdana" font-size="14" lengthAdjust="spacing" textLength="163.6045" x="620.9986" y="1129.3661">MonitoringVisualization</text><line style="stroke:#000000;stroke-width:1;" x1="495.48" x2="882.6216" y1="1138.5194" y2="1138.5194"/><rect fill="none" height="6" style="stroke:#000000;stroke-width:1;" width="6" x="502.48" y="1149.1678"/><text fill="#000000" font-family="Verdana" font-size="14" lengthAdjust="spacing" textLength="216.2822" x="512.48" y="1155.5145">eHubMonitorEnabled : boolean</text><rect fill="none" height="6" style="stroke:#000000;stroke-width:1;" width="6" x="502.48" y="1165.4647"/><text fill="#000000" font-family="Verdana" font-size="14" lengthAdjust="spacing" textLength="210.1914" x="512.48" y="1171.8114">dmxMonitorEnabled : boolean</text><rect fill="none" height="6" style="stroke:#000000;stroke-width:1;" width="6" x="502.48" y="1181.7616"/><text fill="#000000" font-family="Verdana" font-size="14" lengthAdjust="spacing" textLength="223.7813" x="512.48" y="1188.1082">artNetMonitorEnabled : boolean</text><line style="stroke:#000000;stroke-width:1;" x1="495.48" x2="882.6216" y1="1195.41" y2="1195.41"/><ellipse cx="505.48" cy="1209.0584" fill="#FFFFFF" rx="3" ry="3" style="stroke:#000000;stroke-width:1;"/><text fill="#000000" font-family="Verdana" font-size="14" lengthAdjust="spacing" textLength="191.9736" x="512.48" y="1212.4051">enableEHubMonitor() : void</text><ellipse cx="505.48" cy="1225.3553" fill="#FFFFFF" rx="3" ry="3" style="stroke:#000000;stroke-width:1;"/><text fill="#000000" font-family="Verdana" font-size="14" lengthAdjust="spacing" textLength="194.5576" x="512.48" y="1228.702">disableEHubMonitor() : void</text><ellipse cx="505.48" cy="1241.6522" fill="#FFFFFF" rx="3" ry="3" style="stroke:#000000;stroke-width:1;"/><text fill="#000000" font-family="Verdana" font-size="14" lengthAdjust="spacing" textLength="350.6768" x="512.48" y="1244.9989">displayLiveEHubData(data : EntityUpdate[]) : void</text><ellipse cx="505.48" cy="1257.9491" fill="#FFFFFF" rx="3" ry="3" style="stroke:#000000;stroke-width:1;"/><text fill="#000000" font-family="Verdana" font-size="14" lengthAdjust="spacing" textLength="320.2979" x="512.48" y="1261.2957">displayLiveDMXData(data : DMXData[]) : void</text><ellipse cx="505.48" cy="1274.2459" fill="#FFFFFF" rx="3" ry="3" style="stroke:#000000;stroke-width:1;"/><text fill="#000000" font-family="Verdana" font-size="14" lengthAdjust="spacing" textLength="365.1416" x="512.48" y="1277.5926">displayArtNetTraffic(packets : ArtNetPacket[]) : void</text><ellipse cx="505.48" cy="1290.5428" fill="#FFFFFF" rx="3" ry="3" style="stroke:#000000;stroke-width:1;"/><text fill="#000000" font-family="Verdana" font-size="14" lengthAdjust="spacing" textLength="175.1914" x="512.48" y="1293.8895">generateReport() : string</text></g><!--class TestGenerator--><g class="entity" data-entity="TestGenerator" data-source-line="63" data-uid="ent0008" id="entity_TestGenerator"><rect fill="#FFFFFF" height="125.4844" rx="2.5" ry="2.5" style="stroke:#000000;stroke-width:1;" width="496.2471" x="370.92" y="92.6094"/><ellipse cx="564.7725" cy="106.6094" fill="#FFFFFF" rx="9" ry="9" style="stroke:#000000;stroke-width:1;"/><path d="M567.7413,112.25 Q567.1632,112.5469 566.5225,112.6875 Q565.8819,112.8438 565.1788,112.8438 Q562.6788,112.8438 561.3507,111.2031 Q560.0382,109.5469 560.0382,106.4219 Q560.0382,103.2969 561.3507,101.6406 Q562.6788,99.9844 565.1788,99.9844 Q565.8819,99.9844 566.5225,100.1406 Q567.1788,100.2969 567.7413,100.5938 L567.7413,103.3125 Q567.1163,102.7344 566.5225,102.4688 Q565.9288,102.1875 565.3038,102.1875 Q563.96,102.1875 563.2725,103.2656 Q562.585,104.3281 562.585,106.4219 Q562.585,108.5156 563.2725,109.5938 Q563.96,110.6563 565.3038,110.6563 Q565.9288,110.6563 566.5225,110.3906 Q567.1163,110.1094 567.7413,109.5313 L567.7413,112.25 Z " fill="#000000"/><text fill="#000000" font-family="Verdana" font-size="14" lengthAdjust="spacing" textLength="101.042" x="582.2725" y="111.4561">TestGenerator</text><line style="stroke:#000000;stroke-width:1;" x1="371.92" x2="866.1671" y1="120.6094" y2="120.6094"/><rect fill="none" height="6" style="stroke:#000000;stroke-width:1;" width="6" x="378.92" y="131.2578"/><text fill="#000000" font-family="Verdana" font-size="14" lengthAdjust="spacing" textLength="282.3242" x="388.92" y="137.6045">testPatterns : Map&lt;string, TestPattern&gt;</text><line style="stroke:#000000;stroke-width:1;" x1="371.92" x2="866.1671" y1="144.9063" y2="144.9063"/><ellipse cx="381.92" cy="158.5547" fill="#FFFFFF" rx="3" ry="3" style="stroke:#000000;stroke-width:1;"/><text fill="#000000" font-family="Verdana" font-size="14" lengthAdjust="spacing" textLength="423.1172" x="388.92" y="161.9014">generateSequentialTest(entityRange : int[]) : EntityUpdate[]</text><ellipse cx="381.92" cy="174.8516" fill="#FFFFFF" rx="3" ry="3" style="stroke:#000000;stroke-width:1;"/><text fill="#000000" font-family="Verdana" font-size="14" lengthAdjust="spacing" textLength="472.2471" x="388.92" y="178.1982">generateColorTest(color : RGB, entityRange : int[]) : EntityUpdate[]</text><ellipse cx="381.92" cy="191.1484" fill="#FFFFFF" rx="3" ry="3" style="stroke:#000000;stroke-width:1;"/><text fill="#000000" font-family="Verdana" font-size="14" lengthAdjust="spacing" textLength="392.7656" x="388.92" y="194.4951">generateRandomTest(entityCount : int) : EntityUpdate[]</text><ellipse cx="381.92" cy="207.4453" fill="#FFFFFF" rx="3" ry="3" style="stroke:#000000;stroke-width:1;"/><text fill="#000000" font-family="Verdana" font-size="14" lengthAdjust="spacing" textLength="366.7139" x="388.92" y="210.792">simulateEHubMessages(pattern : TestPattern) : void</text></g><!--class ConfigurationManager--><g class="entity" data-entity="ConfigurationManager" data-source-line="71" data-uid="ent0009" id="entity_ConfigurationManager"><rect fill="#FFFFFF" height="125.4844" rx="2.5" ry="2.5" style="stroke:#000000;stroke-width:1;" width="361.6475" x="1087.22" y="334.5394"/><ellipse cx="1186.1385" cy="348.5394" fill="#FFFFFF" rx="9" ry="9" style="stroke:#000000;stroke-width:1;"/><path d="M1189.1072,354.18 Q1188.5291,354.4769 1187.8885,354.6175 Q1187.2478,354.7737 1186.5447,354.7737 Q1184.0447,354.7737 1182.7166,353.1331 Q1181.4041,351.4769 1181.4041,348.3519 Q1181.4041,345.2269 1182.7166,343.5706 Q1184.0447,341.9144 1186.5447,341.9144 Q1187.2478,341.9144 1187.8885,342.0706 Q1188.5447,342.2269 1189.1072,342.5237 L1189.1072,345.2425 Q1188.4822,344.6644 1187.8885,344.3987 Q1187.2947,344.1175 1186.6697,344.1175 Q1185.326,344.1175 1184.6385,345.1956 Q1183.951,346.2581 1183.951,348.3519 Q1183.951,350.4456 1184.6385,351.5237 Q1185.326,352.5862 1186.6697,352.5862 Q1187.2947,352.5862 1187.8885,352.3206 Q1188.4822,352.0394 1189.1072,351.4612 L1189.1072,354.18 Z " fill="#000000"/><text fill="#000000" font-family="Verdana" font-size="14" lengthAdjust="spacing" textLength="156.3105" x="1203.6385" y="353.3861">ConfigurationManager</text><line style="stroke:#000000;stroke-width:1;" x1="1088.22" x2="1447.8675" y1="362.5394" y2="362.5394"/><rect fill="none" height="6" style="stroke:#000000;stroke-width:1;" width="6" x="1095.22" y="373.1878"/><text fill="#000000" font-family="Verdana" font-size="14" lengthAdjust="spacing" textLength="206.7188" x="1105.22" y="379.5345">currentConfig : SystemConfig</text><line style="stroke:#000000;stroke-width:1;" x1="1088.22" x2="1447.8675" y1="386.8362" y2="386.8362"/><ellipse cx="1098.22" cy="400.4847" fill="#FFFFFF" rx="3" ry="3" style="stroke:#000000;stroke-width:1;"/><text fill="#000000" font-family="Verdana" font-size="14" lengthAdjust="spacing" textLength="337.6475" x="1105.22" y="403.8314">saveSystemConfig(config : SystemConfig) : void</text><ellipse cx="1098.22" cy="416.7816" fill="#FFFFFF" rx="3" ry="3" style="stroke:#000000;stroke-width:1;"/><text fill="#000000" font-family="Verdana" font-size="14" lengthAdjust="spacing" textLength="248.7119" x="1105.22" y="420.1282">loadSystemConfig() : SystemConfig</text><ellipse cx="1098.22" cy="433.0784" fill="#FFFFFF" rx="3" ry="3" style="stroke:#000000;stroke-width:1;"/><text fill="#000000" font-family="Verdana" font-size="14" lengthAdjust="spacing" textLength="335.2275" x="1105.22" y="436.4251">validateConfig(config : SystemConfig) : boolean</text><ellipse cx="1098.22" cy="449.3753" fill="#FFFFFF" rx="3" ry="3" style="stroke:#000000;stroke-width:1;"/><text fill="#000000" font-family="Verdana" font-size="14" lengthAdjust="spacing" textLength="245.4443" x="1105.22" y="452.722">exportConfig(format : string) : void</text></g><!--class EntityUpdate--><g class="entity" data-entity="EntityUpdate" data-source-line="95" data-uid="ent0020" id="entity_EntityUpdate"><rect fill="#FFFFFF" height="125.4844" rx="2.5" ry="2.5" style="stroke:#000000;stroke-width:1;" width="119.5742" x="23.26" y="92.6094"/><ellipse cx="36.26" cy="106.6094" fill="#FFFFFF" rx="9" ry="9" style="stroke:#000000;stroke-width:1;"/><path d="M39.2288,112.25 Q38.6506,112.5469 38.01,112.6875 Q37.3694,112.8438 36.6663,112.8438 Q34.1663,112.8438 32.8381,111.2031 Q31.5256,109.5469 31.5256,106.4219 Q31.5256,103.2969 32.8381,101.6406 Q34.1663,99.9844 36.6663,99.9844 Q37.3694,99.9844 38.01,100.1406 Q38.6663,100.2969 39.2288,100.5938 L39.2288,103.3125 Q38.6038,102.7344 38.01,102.4688 Q37.4163,102.1875 36.7913,102.1875 Q35.4475,102.1875 34.76,103.2656 Q34.0725,104.3281 34.0725,106.4219 Q34.0725,108.5156 34.76,109.5938 Q35.4475,110.6563 36.7913,110.6563 Q37.4163,110.6563 38.01,110.3906 Q38.6038,110.1094 39.2288,109.5313 L39.2288,112.25 Z " fill="#000000"/><text fill="#000000" font-family="Verdana" font-size="14" lengthAdjust="spacing" textLength="91.5742" x="48.26" y="111.4561">EntityUpdate</text><line style="stroke:#000000;stroke-width:1;" x1="24.26" x2="141.8342" y1="120.6094" y2="120.6094"/><ellipse cx="34.26" cy="134.2578" fill="none" rx="3" ry="3" style="stroke:#000000;stroke-width:1;"/><text fill="#000000" font-family="Verdana" font-size="14" lengthAdjust="spacing" textLength="44.6455" x="41.26" y="137.6045">id : int</text><ellipse cx="34.26" cy="150.5547" fill="none" rx="3" ry="3" style="stroke:#000000;stroke-width:1;"/><text fill="#000000" font-family="Verdana" font-size="14" lengthAdjust="spacing" textLength="50.6475" x="41.26" y="153.9014">r : byte</text><ellipse cx="34.26" cy="166.8516" fill="none" rx="3" ry="3" style="stroke:#000000;stroke-width:1;"/><text fill="#000000" font-family="Verdana" font-size="14" lengthAdjust="spacing" textLength="53.7783" x="41.26" y="170.1982">g : byte</text><ellipse cx="34.26" cy="183.1484" fill="none" rx="3" ry="3" style="stroke:#000000;stroke-width:1;"/><text fill="#000000" font-family="Verdana" font-size="14" lengthAdjust="spacing" textLength="53.7783" x="41.26" y="186.4951">b : byte</text><ellipse cx="34.26" cy="199.4453" fill="none" rx="3" ry="3" style="stroke:#000000;stroke-width:1;"/><text fill="#000000" font-family="Verdana" font-size="14" lengthAdjust="spacing" textLength="56.3418" x="41.26" y="202.792">w : byte</text><line style="stroke:#000000;stroke-width:1;" x1="24.26" x2="141.8342" y1="210.0938" y2="210.0938"/></g><!--class DMXData--><g class="entity" data-entity="DMXData" data-source-line="103" data-uid="ent0021" id="entity_DMXData"><rect fill="#FFFFFF" height="109.1875" rx="2.5" ry="2.5" style="stroke:#000000;stroke-width:1;" width="157.4717" x="178.31" y="100.7594"/><ellipse cx="220.3569" cy="114.7594" fill="#FFFFFF" rx="9" ry="9" style="stroke:#000000;stroke-width:1;"/><path d="M223.3256,120.4 Q222.7475,120.6969 222.1069,120.8375 Q221.4663,120.9937 220.7631,120.9937 Q218.2631,120.9937 216.935,119.3531 Q215.6225,117.6969 215.6225,114.5719 Q215.6225,111.4469 216.935,109.7906 Q218.2631,108.1344 220.7631,108.1344 Q221.4663,108.1344 222.1069,108.2906 Q222.7631,108.4469 223.3256,108.7437 L223.3256,111.4625 Q222.7006,110.8844 222.1069,110.6187 Q221.5131,110.3375 220.8881,110.3375 Q219.5444,110.3375 218.8569,111.4156 Q218.1694,112.4781 218.1694,114.5719 Q218.1694,116.6656 218.8569,117.7437 Q219.5444,118.8062 220.8881,118.8062 Q221.5131,118.8062 222.1069,118.5406 Q222.7006,118.2594 223.3256,117.6812 L223.3256,120.4 Z " fill="#000000"/><text fill="#000000" font-family="Verdana" font-size="14" lengthAdjust="spacing" textLength="65.8779" x="237.8569" y="119.6061">DMXData</text><line style="stroke:#000000;stroke-width:1;" x1="179.31" x2="334.7817" y1="128.7594" y2="128.7594"/><ellipse cx="189.31" cy="142.4078" fill="none" rx="3" ry="3" style="stroke:#000000;stroke-width:1;"/><text fill="#000000" font-family="Verdana" font-size="14" lengthAdjust="spacing" textLength="92.0664" x="196.31" y="145.7545">universe : int</text><ellipse cx="189.31" cy="158.7047" fill="none" rx="3" ry="3" style="stroke:#000000;stroke-width:1;"/><text fill="#000000" font-family="Verdana" font-size="14" lengthAdjust="spacing" textLength="87.2676" x="196.31" y="162.0514">channel : int</text><ellipse cx="189.31" cy="175.0016" fill="none" rx="3" ry="3" style="stroke:#000000;stroke-width:1;"/><text fill="#000000" font-family="Verdana" font-size="14" lengthAdjust="spacing" textLength="83.1318" x="196.31" y="178.3482">value : byte</text><ellipse cx="189.31" cy="191.2984" fill="none" rx="3" ry="3" style="stroke:#000000;stroke-width:1;"/><text fill="#000000" font-family="Verdana" font-size="14" lengthAdjust="spacing" textLength="133.4717" x="196.31" y="194.6451">controllerIP : string</text><line style="stroke:#000000;stroke-width:1;" x1="179.31" x2="334.7817" y1="201.9469" y2="201.9469"/></g><!--class ControllerConfig--><g class="entity" data-entity="ControllerConfig" data-source-line="110" data-uid="ent0022" id="entity_ControllerConfig"><rect fill="#FFFFFF" height="109.1875" rx="2.5" ry="2.5" style="stroke:#000000;stroke-width:1;" width="142.0918" x="12" y="342.6894"/><ellipse cx="25" cy="356.6894" fill="#FFFFFF" rx="9" ry="9" style="stroke:#000000;stroke-width:1;"/><path d="M27.9688,362.33 Q27.3906,362.6269 26.75,362.7675 Q26.1094,362.9237 25.4063,362.9237 Q22.9063,362.9237 21.5781,361.2831 Q20.2656,359.6269 20.2656,356.5019 Q20.2656,353.3769 21.5781,351.7206 Q22.9063,350.0644 25.4063,350.0644 Q26.1094,350.0644 26.75,350.2206 Q27.4063,350.3769 27.9688,350.6737 L27.9688,353.3925 Q27.3438,352.8144 26.75,352.5487 Q26.1563,352.2675 25.5313,352.2675 Q24.1875,352.2675 23.5,353.3456 Q22.8125,354.4081 22.8125,356.5019 Q22.8125,358.5956 23.5,359.6737 Q24.1875,360.7362 25.5313,360.7362 Q26.1563,360.7362 26.75,360.4706 Q27.3438,360.1894 27.9688,359.6112 L27.9688,362.33 Z " fill="#000000"/><text fill="#000000" font-family="Verdana" font-size="14" lengthAdjust="spacing" textLength="114.0918" x="37" y="361.5361">ControllerConfig</text><line style="stroke:#000000;stroke-width:1;" x1="13" x2="153.0918" y1="370.6894" y2="370.6894"/><ellipse cx="23" cy="384.3378" fill="none" rx="3" ry="3" style="stroke:#000000;stroke-width:1;"/><text fill="#000000" font-family="Verdana" font-size="14" lengthAdjust="spacing" textLength="66.582" x="30" y="387.6845">ip : string</text><ellipse cx="23" cy="400.6347" fill="none" rx="3" ry="3" style="stroke:#000000;stroke-width:1;"/><text fill="#000000" font-family="Verdana" font-size="14" lengthAdjust="spacing" textLength="110.2842" x="30" y="403.9814">universes : int[]</text><ellipse cx="23" cy="416.9316" fill="none" rx="3" ry="3" style="stroke:#000000;stroke-width:1;"/><text fill="#000000" font-family="Verdana" font-size="14" lengthAdjust="spacing" textLength="105.3486" x="30" y="420.2782">startEntity : int</text><ellipse cx="23" cy="433.2284" fill="none" rx="3" ry="3" style="stroke:#000000;stroke-width:1;"/><text fill="#000000" font-family="Verdana" font-size="14" lengthAdjust="spacing" textLength="99.1143" x="30" y="436.5751">endEntity : int</text><line style="stroke:#000000;stroke-width:1;" x1="13" x2="153.0918" y1="443.8769" y2="443.8769"/></g><!--link EHubReceiver to EntityToDMXMapper--><g class="link" data-entity-1="EHubReceiver" data-entity-2="EntityToDMXMapper" data-source-line="80" data-uid="lnk10" id="link_EHubReceiver_EntityToDMXMapper"><path codeLine="80" d="M750.35,484.8494 C794.78,514.1394 839.3604,543.5372 883.7804,572.8172" fill="none" id="EHubReceiver-to-EntityToDMXMapper" style="stroke:#000000;stroke-width:1;"/><polygon fill="#000000" points="888.79,576.1194,883.477,567.8265,884.6153,573.3676,879.0742,574.5059,888.79,576.1194" style="stroke:#000000;stroke-width:1;"/><text fill="#000000" font-family="Verdana" font-size="13" lengthAdjust="spacing" textLength="102.6479" x="844.05" y="527.5363">fournit données</text><text fill="#000000" font-family="Verdana" font-size="13" lengthAdjust="spacing" textLength="89.9653" x="850.3913" y="542.6691">update/config</text></g><!--link EntityToDMXMapper to PatchMapHandler--><g class="link" data-entity-1="EntityToDMXMapper" data-entity-2="PatchMapHandler" data-source-line="81" data-uid="lnk11" id="link_EntityToDMXMapper_PatchMapHandler"><path codeLine="81" d="M1055.43,751.0994 C1067.47,773.2194 1082.65,795.5994 1101.05,812.8494 C1117.93,828.6694 1132.0748,839.6371 1152.3348,852.1471" fill="none" id="EntityToDMXMapper-to-PatchMapHandler" style="stroke:#000000;stroke-width:1;"/><polygon fill="#000000" points="1157.44,855.2994,1151.8838,847.1674,1153.1857,852.6724,1147.6807,853.9744,1157.44,855.2994" style="stroke:#000000;stroke-width:1;"/><text fill="#000000" font-family="Verdana" font-size="13" lengthAdjust="spacing" textLength="111.7886" x="1102.05" y="793.9163">applique patches</text><text fill="#000000" font-family="Verdana" font-size="13" lengthAdjust="spacing" textLength="84.3667" x="1115.7609" y="809.0491">si nécessaire</text></g><!--link PatchMapHandler to EntityToDMXMapper--><g class="link" data-entity-1="PatchMapHandler" data-entity-2="EntityToDMXMapper" data-source-line="83" data-uid="lnk13" id="link_PatchMapHandler_EntityToDMXMapper"><path codeLine="83" d="M1285.53,842.7294 C1264.58,821.1994 1241.37,799.2594 1218.05,780.8494 C1205.14,770.6594 1196.2523,764.0676 1182.0323,754.5876" fill="none" id="PatchMapHandler-to-EntityToDMXMapper" style="stroke:#000000;stroke-width:1;"/><polygon fill="#000000" points="1177.04,751.2594,1182.3097,759.5799,1181.2003,754.0329,1186.7473,752.9235,1177.04,751.2594" style="stroke:#000000;stroke-width:1;"/><text fill="#000000" font-family="Verdana" font-size="13" lengthAdjust="spacing" textLength="115.8003" x="1254.05" y="793.9163">retourne données</text><text fill="#000000" font-family="Verdana" font-size="13" lengthAdjust="spacing" textLength="59.4712" x="1282.2146" y="809.0491">patchées</text></g><!--link EntityToDMXMapper to ArtNetSender--><g class="link" data-entity-1="EntityToDMXMapper" data-entity-2="ArtNetSender" data-source-line="82" data-uid="lnk12" id="link_EntityToDMXMapper_ArtNetSender"><path codeLine="82" d="M914.86,751.2594 C876.34,782.9794 837.3917,815.0353 798.8717,846.7553" fill="none" id="EntityToDMXMapper-to-ArtNetSender" style="stroke:#000000;stroke-width:1;"/><polygon fill="#000000" points="794.24,850.5694,803.7303,847.9361,798.0998,847.391,798.6449,841.7604,794.24,850.5694" style="stroke:#000000;stroke-width:1;"/><text fill="#000000" font-family="Verdana" font-size="13" lengthAdjust="spacing" textLength="59.1792" x="885.1586" y="793.9163">transmet</text><text fill="#000000" font-family="Verdana" font-size="13" lengthAdjust="spacing" textLength="79.3965" x="875.05" y="809.0491">DMX mappé</text></g><!--link EHubReceiver to MonitoringVisualization--><g class="link" data-entity-1="EHubReceiver" data-entity-2="MonitoringVisualization" data-source-line="85" data-uid="lnk14" id="link_EHubReceiver_MonitoringVisualization"><path codeLine="85" d="M542.24,484.7194 C439.82,611.0594 283.06,850.9294 389.05,1033.5194 C413.44,1075.5394 447.2726,1105.0532 489.1726,1129.9632" fill="none" id="EHubReceiver-to-MonitoringVisualization" style="stroke:#000000;stroke-width:1;"/><polygon fill="#000000" points="494.33,1133.0294,488.638,1124.9919,490.0322,1130.4743,484.5498,1131.8684,494.33,1133.0294" style="stroke:#000000;stroke-width:1;"/><text fill="#000000" font-family="Verdana" font-size="13" lengthAdjust="spacing" textLength="94.5166" x="373.05" y="793.9163">données eHuB</text><text fill="#000000" font-family="Verdana" font-size="13" lengthAdjust="spacing" textLength="43.5005" x="398.5581" y="809.0491">reçues</text></g><!--link EntityToDMXMapper to MonitoringVisualization--><g class="link" data-entity-1="EntityToDMXMapper" data-entity-2="MonitoringVisualization" data-source-line="86" data-uid="lnk15" id="link_EntityToDMXMapper_MonitoringVisualization"><path codeLine="86" d="M1034.27,751.2294 C1042.68,830.8994 1042.88,949.1394 989.05,1033.5194 C963.48,1073.5894 930.1305,1102.175 889.1805,1126.825" fill="none" id="EntityToDMXMapper-to-MonitoringVisualization" style="stroke:#000000;stroke-width:1;"/><polygon fill="#000000" points="884.04,1129.9194,893.8137,1128.7049,888.3238,1127.3407,889.6879,1121.8508,884.04,1129.9194" style="stroke:#000000;stroke-width:1;"/><text fill="#000000" font-family="Verdana" font-size="13" lengthAdjust="spacing" textLength="80.0947" x="1039.05" y="942.7463">DMX généré</text></g><!--link ArtNetSender to MonitoringVisualization--><g class="link" data-entity-1="ArtNetSender" data-entity-2="MonitoringVisualization" data-source-line="87" data-uid="lnk16" id="link_ArtNetSender_MonitoringVisualization"><path codeLine="87" d="M689.05,1025.8094 C689.05,1052.7594 689.05,1076.6094 689.05,1104.0894" fill="none" id="ArtNetSender-to-MonitoringVisualization" style="stroke:#000000;stroke-width:1;"/><polygon fill="#000000" points="689.05,1110.0894,693.05,1101.0894,689.05,1105.0894,685.05,1101.0894,689.05,1110.0894" style="stroke:#000000;stroke-width:1;"/><text fill="#000000" font-family="Verdana" font-size="13" lengthAdjust="spacing" textLength="80.0313" x="690.05" y="1076.5863">trafic ArtNet</text></g><!--link TestGenerator to EHubReceiver--><g class="link" data-entity-1="TestGenerator" data-entity-2="EHubReceiver" data-source-line="89" data-uid="lnk17" id="link_TestGenerator_EHubReceiver"><path codeLine="89" d="M619.05,218.4494 C619.05,246.3594 619.05,273.7694 619.05,304.0494" fill="none" id="TestGenerator-to-EHubReceiver" style="stroke:#000000;stroke-width:1;"/><polygon fill="#000000" points="619.05,310.0494,623.05,301.0494,619.05,305.0494,615.05,301.0494,619.05,310.0494" style="stroke:#000000;stroke-width:1;"/><text fill="#000000" font-family="Verdana" font-size="13" lengthAdjust="spacing" textLength="115.1592" x="620.05" y="261.1663">génère messages</text><text fill="#000000" font-family="Verdana" font-size="13" lengthAdjust="spacing" textLength="45.3477" x="654.9558" y="276.2991">de test</text></g><!--link ConfigurationManager to EntityToDMXMapper--><g class="link" data-entity-1="ConfigurationManager" data-entity-2="EntityToDMXMapper" data-source-line="90" data-uid="lnk18" id="link_ConfigurationManager_EntityToDMXMapper"><path codeLine="90" d="M1209.9,460.2694 C1177.55,494.7594 1140.865,533.8635 1105.405,571.6635" fill="none" id="ConfigurationManager-to-EntityToDMXMapper" style="stroke:#000000;stroke-width:1;"/><polygon fill="#000000" points="1101.3,576.0394,1110.3748,572.2122,1104.7209,572.3928,1104.5403,566.7388,1101.3,576.0394" style="stroke:#000000;stroke-width:1;"/><text fill="#000000" font-family="Verdana" font-size="13" lengthAdjust="spacing" textLength="86.2329" x="1159.05" y="527.5363">configuration</text><text fill="#000000" font-family="Verdana" font-size="13" lengthAdjust="spacing" textLength="57.2368" x="1173.548" y="542.6691">mapping</text></g><!--link ConfigurationManager to PatchMapHandler--><g class="link" data-entity-1="ConfigurationManager" data-entity-2="PatchMapHandler" data-source-line="91" data-uid="lnk19" id="link_ConfigurationManager_PatchMapHandler"><path codeLine="91" d="M1296.46,460.1894 C1330.28,540.0994 1381.7,684.1894 1377.05,812.8494 C1376.7,822.4694 1376.553,826.5198 1375.963,836.5298" fill="none" id="ConfigurationManager-to-PatchMapHandler" style="stroke:#000000;stroke-width:1;"/><polygon fill="#000000" points="1375.61,842.5194,1380.1326,833.7703,1375.9042,837.528,1372.1465,833.2996,1375.61,842.5194" style="stroke:#000000;stroke-width:1;"/><text fill="#000000" font-family="Verdana" font-size="13" lengthAdjust="spacing" textLength="86.2329" x="1376.05" y="660.7263">configuration</text><text fill="#000000" font-family="Verdana" font-size="13" lengthAdjust="spacing" textLength="51.4731" x="1393.4299" y="675.8591">patches</text></g><!--SRC=[dLVDRjiu4BxxARY-r84TBB37e32GnavR85uOZhTOeEw1aSOoKOdKafGRxoBFqyrpvCLs-2EBb6IdNS07YfpvXlFD7_sBta41fCmfumFDT0xaMYOxfY7HbGHo9pAMCCXnFwt8GgILMG5PYKhJ3CYdtmQ3aYPVpNhOFRwRpuRadm4X-4jogXIPVwWULf00suEq9uHSba9gSaKOr-wxukPKXLjCtJ6bWJEUuVQ343bGRe_6IbEfZwUZ2ppV2vRMXw8yTLPIgU2FCgKQ5g0KtdU4Qshm3ne-Vp7ISuwa79pGvo-1tetWMvQzekU4QhqK4b6K4bMMz90BcdRLt0h5doBEBDXQp1P_BcXPDiGL-8L-hUa3qdv5yF2ja_qucn2KlavJOsxgf9CTvHnoZ98Hlcc-tB7ORXM4SHWdzlgO1WjdPzIrDo4ngj8I1IOa18jPHmnxHmRAUZG2_zLXs-YXm0n9gYbKTE-PhoJLJF3HbkMmf7ftj1rRCpJ_bCAUvincX7Vv8agtA2o8aknGxWFbQHvaizcsxfXueFyJGyAqpkCvD-obxIocQMhnHafKCW4V7KVWX62APw2ZpVZQ4WgnXvC8iJ2wbX-MxfgZj7YSkJGySjr3lE7HQjnAKTmYXQ_nQ29b5TRYHyJ1ic8LkeMQCdNgD0h8jTI_Wxu7dZRHyCm9hgN0BcQxYca8Rvijbn_JkgGURoKjO8Kv43OWD62Hrwmm-xdWsJ5m3TI8bK4H-3u6lfCvOjinwrTkaOc6CI1BRBIW-o9MPyZ7PO_vlXJ8MS7qqT4MtqmXZT-4_Be2cXxEbS12SAQ5CVU9gGfBvszRP3NvWCtUY_Id_INwSbw0sfYUbV79Cs-CzUVFMG6SW8SxvCi86KxhtjnjIRrgFXArLbHA7GMNfsj9jrkMZ4eRLPCZRjz5kQsQ0GViOB02Cotj_LsSso5PWzBldR1egW0tiNmqI5utfZfBritHD3Pr3tzLfZdJtCYuFdrOKPv1cCzz4x96k16va5OvCIkKNhr_Do7_0mc5Kr44zxWH5G_cIv-kOaMLuxUDknlK2jcshg9AuFYfXX9DZWNbY72aDAcanAiu4TI_F-0het2VJGiCTqT9dsntNaKw5xtGzPHw3JWkaqUJEbvbAsH1TL-_yGoy8Il8hUCAlw9ds-NbjETDSaM6MvmyM5ya5Po_F8FQyCf6v5TtmQ41wkWPjFOeHImpf1Wc8F7pTCCL8uYQc4Wo2QV1eZ60I5fIhWhG6uvonBnXNfwDTjleIRSaQECO17xPIvdbqB7LuUTKPqIu6eLWUtotuH9UlbSEgD-VCr36eUpb6U6ayodo_HLbv0NxZrVnViJTmp8IUePQrjo_-DUWy2MrGLl4D1W3qLin9ubDGkaDzy_BipWzcT92yVao73mD1c_8-b0YqsaJkq7ufdODmvRqcAN7UJ-M_YrkrbcmVWZMt-ersd6Olkixk7ZwcfqaV94DN1LN420cnwT0CCSR-FQBnL-x34V1kFFc6DH_aPp7ZNNCaMZhwJy0]--></g></svg>